{"title":"Nokia CLT20- Opening Ceremony with Jay Sean ~Team Rjaa~ ","uid":6703208,"size":298956160,"categoryP":"video","categoryS":"tv_shows","magnet":"?xt=urn:btih:8d14bb4b9cc901e33937a48a8488507c9a57f302&amp;dn=Nokia+CLT20-+Opening+Ceremony+with+Jay+Sean+%7ETeam+Rjaa%7E+&amp;tr=udp%3A%2F%2Ftracker.openbittorrent.com%3A80&amp;tr=udp%3A%2F%2Fopen.demonii.com%3A1337&amp;tr=udp%3A%2F%2Ftracker.coppersurfer.tk%3A6969&amp;tr=udp%3A%2F%2Fexodus.desync.com%3A6969","seeders":0,"leechers":0,"uploader":"rjaa","files":1,"time":1317059003,"description":"\nGeneral\nComplete name : C:\\Users\\MY PC\\Nokia CL T20- Opening Ceremony with Jay Sean Ashikappu.flv\nFormat : Flash Video\nFile size : 285 MiB\nDuration : 47mn 16s\nOverall bit rate : 843 Kbps\n\nVideo\nFormat : AVC\nFormat/Info : Advanced Video Codec\nFormat profile : &lt;a class=&quot;__cf_email__&quot; href=&quot;/cdn-cgi/l/email-protection&quot; data-cfemail=&quot;6a270b03042a2658445b&quot;&gt;[email&amp;#160;protected]&lt;/a&gt;&lt;script data-cfhash='f9e31' type=&quot;text/javascript&quot;&gt;\n/* &lt;![CDATA[ */!function(){try{var t=&quot;currentScript&quot;in document?document.currentScript:function(){for(var t=document.getElementsByTagName(&quot;script&quot;),e=t.length;e--;)if(t[e].getAttribute(&quot;data-cfhash&quot;))return t[e]}();if(t&amp;&amp;t.previousSibling){var e,r,n,i,c=t.previousSibling,a=c.getAttribute(&quot;data-cfemail&quot;);if(a){for(e=&quot;&quot;,r=parseInt(a.substr(0,2),16),n=2;a.length-n;n+=2)i=parseInt(a.substr(n,2),16)^r,e+=String.fromCharCode(i);e=document.createTextNode(e),c.parentNode.replaceChild(e,c)}t.parentNode.removeChild(t);}}catch(u){}}()/* ]]&gt; */&lt;/script&gt;\nFormat settings, CABAC : Yes\nFormat settings, ReFrames : 3 frames\nFormat settings, GOP : M=1, N=50\nCodec ID : 7\nDuration : 47mn 16s\nBit rate : 706 Kbps\nWidth : 480 pixels\nHeight : 360 pixels\nDisplay aspect ratio : 4:3\nFrame rate mode : Constant\nFrame rate : 25.000 fps\nColor space : YUV\nChroma subsampling : 4:2:0\nBit depth : 8 bits\nScan type : Progressive\nBits/(Pixel*Frame) : 0.164\nStream size : 239 MiB (84%)\n\nAudio\nFormat : AAC\nFormat/Info : Advanced Audio Codec\nFormat profile : LC\nCodec ID : 10\nDuration : 47mn 16s\nBit rate : 129 Kbps\nChannel(s) : 2 channels\nChannel positions : Front: L R\nSampling rate : 44.1 KHz\nCompression mode : Lossy\nStream size : 43.5 MiB (15%)\n\n\nscreenshots:\n &lt;a href=&quot;\nhttp://www.shotpix.com/images/25128662043185090380.png&quot; rel=&quot;nofollow&quot; target=&quot;_NEW&quot;&gt;\nhttp://www.shotpix.com/images/25128662043185090380.png&lt;/a&gt;\n &lt;a href=&quot;\nhttp://www.shotpix.com/images/63257915713209734762.png&quot; rel=&quot;nofollow&quot; target=&quot;_NEW&quot;&gt;\nhttp://www.shotpix.com/images/63257915713209734762.png&lt;/a&gt;\n &lt;a href=&quot;\nhttp://www.shotpix.com/images/76318801698888873936.png&quot; rel=&quot;nofollow&quot; target=&quot;_NEW&quot;&gt;\nhttp://www.shotpix.com/images/76318801698888873936.png&lt;/a&gt;\n &lt;a href=&quot;\nhttp://www.shotpix.com/images/14911154552136557946.png&quot; rel=&quot;nofollow&quot; target=&quot;_NEW&quot;&gt;\nhttp://www.shotpix.com/images/14911154552136557946.png&lt;/a&gt;\n &lt;a href=&quot;\nhttp://www.shotpix.com/images/77429558239876698975.png&quot; rel=&quot;nofollow&quot; target=&quot;_NEW&quot;&gt;\nhttp://www.shotpix.com/images/77429558239876698975.png&lt;/a&gt;\n &lt;a href=&quot;\nhttp://www.shotpix.com/images/57354325588718737407.jpg&quot; rel=&quot;nofollow&quot; target=&quot;_NEW&quot;&gt;\nhttp://www.shotpix.com/images/57354325588718737407.jpg&lt;/a&gt;","torrent":{"xt":"urn:btih:8d14bb4b9cc901e33937a48a8488507c9a57f302","amp;dn":"Nokia+CLT20-+Opening+Ceremony+with+Jay+Sean+%7ETeam+Rjaa%7E+","amp;tr":["udp%3A%2F%2Ftracker.openbittorrent.com%3A80","udp%3A%2F%2Fopen.demonii.com%3A1337","udp%3A%2F%2Ftracker.coppersurfer.tk%3A6969","udp%3A%2F%2Fexodus.desync.com%3A6969"],"infoHash":"8d14bb4b9cc901e33937a48a8488507c9a57f302","infoHashBuffer":{"type":"Buffer","data":[141,20,187,75,156,201,1,227,57,55,164,138,132,136,80,124,154,87,243,2]},"announce":[],"urlList":[]}}